<svg xmlns="http://www.w3.org/2000/svg" xmlns:xlink="http://www.w3.org/1999/xlink" viewBox="0,0,256,256" width="48px" height="48px" fill-rule="nonzero"><g fill-opacity="0" fill="#dddddd" fill-rule="nonzero" stroke="none" stroke-width="1" stroke-linecap="butt" stroke-linejoin="miter" stroke-miterlimit="10" stroke-dasharray="" stroke-dashoffset="0" font-family="none" font-weight="none" font-size="none" text-anchor="none" style="mix-blend-mode: normal"><path d="M0,256v-256h256v256z" id="bgRectangle"></path></g><g fill="#ffffff" fill-rule="nonzero" stroke="none" stroke-width="1" stroke-linecap="butt" stroke-linejoin="miter" stroke-miterlimit="10" stroke-dasharray="" stroke-dashoffset="0" font-family="none" font-weight="none" font-size="none" text-anchor="none" style="mix-blend-mode: normal"><g transform="scale(4,4)"><path d="M32,10c12.131,0 22,9.869 22,22c0,12.131 -9.869,22 -22,22c-12.131,0 -22,-9.869 -22,-22c0,-12.131 9.869,-22 22,-22zM43.798,27.551c1.055,-0.762 1.971,-1.712 2.695,-2.794c-1.472,0.669 -3.101,0.85 -3.101,0.85c0,0 1.902,-1.101 2.373,-2.986c-1.042,0.618 -2.198,1.068 -3.428,1.31c-0.985,-1.049 -2.387,-1.705 -3.94,-1.705c-2.981,0 -5.398,2.418 -5.398,5.398c0,0.423 0.14,1.229 0.14,1.229c0,0 -6.514,0.039 -11.126,-5.641c0,0 -0.71,0.949 -0.73,2.715c-0.034,2.993 2.4,4.492 2.4,4.492c0,0 -1.224,0.033 -2.445,-0.675c0.109,4.636 4.33,5.36 4.33,5.36c0,0 -1.363,0.262 -2.438,0.093c0.687,2.144 2.681,3.706 5.042,3.749c-1.847,1.448 -4.174,2.311 -6.704,2.311c-0.435,0 -0.865,-0.025 -1.288,-0.076c1.253,1.357 5.226,2.425 8.275,2.425c9.929,0 15.357,-8.225 15.357,-15.358c0.001,-0.233 -0.004,-0.465 -0.014,-0.697z"></path></g></g></svg>